<?xml version="1.0" encoding="UTF-8"?>
<!DOCTYPE svg PUBLIC "-//W3C//DTD SVG 1.1//EN" "http://www.w3.org/Graphics/SVG/1.1/DTD/svg11.dtd">
<svg xmlns="http://www.w3.org/2000/svg" version="1.1" width="603px" height="160px" style="shape-rendering:geometricPrecision; text-rendering:geometricPrecision; image-rendering:optimizeQuality; fill-rule:evenodd; clip-rule:evenodd" xmlns:xlink="http://www.w3.org/1999/xlink">
<g><path style="opacity:0.976" fill="#fdfdfd" d="M 66.5,-0.5 C 70.5,-0.5 74.5,-0.5 78.5,-0.5C 79.9361,0.428572 81.2695,1.59524 82.5,3C 92.6656,4.16416 99.6656,9.4975 103.5,19C 105.831,18.8429 108.164,18.3429 110.5,17.5C 108.019,64.8256 105.686,112.159 103.5,159.5C 101.5,159.5 99.5,159.5 97.5,159.5C 64.9259,153.848 32.2592,148.181 -0.5,142.5C -0.5,140.167 -0.5,137.833 -0.5,135.5C 4.36405,105.299 9.19738,74.9661 14,44.5C 20.9507,41.7952 28.1174,39.7952 35.5,38.5C 38.48,25.0253 45.1467,13.8586 55.5,5C 58.9905,2.588 62.6571,0.754663 66.5,-0.5 Z M 68.5,5.5 C 70.5273,5.33788 72.5273,5.50454 74.5,6C 64.853,11.7673 59.0197,20.2673 57,31.5C 52.6303,33.3837 48.1303,34.5503 43.5,35C 46.4324,27.6325 50.2658,20.7991 55,14.5C 58.8823,10.4293 63.3823,7.42933 68.5,5.5 Z M 87.5,10.5 C 91.8488,12.5203 94.8488,15.8537 96.5,20.5C 94.3683,21.5984 92.2016,22.5984 90,23.5C 89.1638,19.1467 88.3305,14.8134 87.5,10.5 Z M 78.5,11.5 C 79.9311,11.8807 80.7645,12.8807 81,14.5C 81.5482,18.1704 82.0482,21.8371 82.5,25.5C 77.2453,26.4388 72.0787,27.7721 67,29.5C 66.5,29.1667 66,28.8333 65.5,28.5C 67.9753,21.3647 72.3087,15.698 78.5,11.5 Z"/></g>
<g><path style="opacity:0.984" fill="#e0e0e0" d="M 110.5,17.5 C 115.316,20.7476 119.982,24.2476 124.5,28C 129.167,28.3333 133.833,28.6667 138.5,29C 139,29.5 139.5,30 140,30.5C 146.935,70.1111 153.435,109.778 159.5,149.5C 142.281,152.344 125.281,155.678 108.5,159.5C 106.833,159.5 105.167,159.5 103.5,159.5C 105.686,112.159 108.019,64.8256 110.5,17.5 Z"/></g>
<g><path style="opacity:0.94" fill="#fefefe" d="M 527.5,27.5 C 533.196,27.447 538.862,27.7803 544.5,28.5C 544.051,33.2072 543.385,37.8738 542.5,42.5C 531.141,40.8667 525.141,45.8667 524.5,57.5C 528.833,57.5 533.167,57.5 537.5,57.5C 536.833,62.1667 536.167,66.8333 535.5,71.5C 530.901,71.2 526.401,71.5333 522,72.5C 519,89.8333 516,107.167 513,124.5C 506.924,125.476 500.758,125.81 494.5,125.5C 497.176,107.775 500.176,90.1084 503.5,72.5C 500.572,71.5159 497.572,71.1826 494.5,71.5C 494.422,67.046 495.089,62.7127 496.5,58.5C 499.704,57.7964 502.871,57.1298 506,56.5C 506.429,41.575 513.596,31.9083 527.5,27.5 Z"/></g>
<g><path style="opacity:0.95" fill="#fefefe" d="M 263.5,29.5 C 269.5,29.5 275.5,29.5 281.5,29.5C 279.883,40.1975 278.383,50.8641 277,61.5C 279.469,59.3485 282.302,57.8485 285.5,57C 298.232,53.7799 306.732,58.2799 311,70.5C 311.667,75.8333 311.667,81.1667 311,86.5C 308.831,99.5131 306.664,112.513 304.5,125.5C 298.158,125.666 291.825,125.5 285.5,125C 288.322,110.237 290.989,95.4039 293.5,80.5C 292.538,71.9245 287.871,69.0912 279.5,72C 277.376,73.1217 275.543,74.6217 274,76.5C 270.843,92.7852 268.009,109.119 265.5,125.5C 259.132,125.83 252.798,125.496 246.5,124.5C 252.297,92.8513 257.963,61.1847 263.5,29.5 Z"/></g>
<g><path style="opacity:0.907" fill="#fefefe" d="M 478.5,30.5 C 490.455,30.6073 494.122,36.1073 489.5,47C 483.809,50.4937 478.309,50.327 473,46.5C 469.718,39.2419 471.551,33.9086 478.5,30.5 Z"/></g>
<g><path style="opacity:1" fill="#040404" d="M 59.5,54.5 C 66.8956,54.1997 74.229,54.6997 81.5,56C 82.428,56.3879 83.0946,57.0546 83.5,58C 81.6455,63.7384 79.3121,69.2384 76.5,74.5C 69.964,72.5641 63.2973,72.0641 56.5,73C 51.5899,76.5681 51.2565,80.5681 55.5,85C 64.6105,89.1106 71.4438,95.6106 76,104.5C 78.6518,120.032 72.4851,130.198 57.5,135C 47.5429,136.716 38.2096,135.049 29.5,130C 26.9357,128.938 25.269,127.104 24.5,124.5C 25.7836,120.309 27.4502,116.309 29.5,112.5C 35.6746,117.503 42.6746,119.336 50.5,118C 54.3226,114.384 54.4893,110.551 51,106.5C 47.4338,103.301 43.6004,100.467 39.5,98C 32.5233,89.1176 31.69,79.6176 37,69.5C 42.9703,62.1055 50.4703,57.1055 59.5,54.5 Z"/></g>
<g><path style="opacity:0.933" fill="#fefefe" d="M 210.5,56.5 C 222.295,54.3797 232.462,57.3797 241,65.5C 243.495,69.4845 244.662,73.8179 244.5,78.5C 238.5,78.5 232.5,78.5 226.5,78.5C 226.651,72.9849 223.984,69.9849 218.5,69.5C 212.924,69.9136 209.258,72.7469 207.5,78C 208.101,79.605 209.101,80.9384 210.5,82C 217.231,84.1326 223.898,86.466 230.5,89C 241.109,96.0761 243.276,105.243 237,116.5C 225.836,126.668 213.003,129.502 198.5,125C 188.573,121.244 183.573,114.078 183.5,103.5C 189.5,103.5 195.5,103.5 201.5,103.5C 200.943,107.888 202.61,111.055 206.5,113C 210.594,113.767 214.594,113.434 218.5,112C 223.31,108.645 223.644,104.979 219.5,101C 211.387,99.059 203.72,96.059 196.5,92C 190.833,86.6811 188.999,80.1811 191,72.5C 194.715,63.7314 201.215,58.3981 210.5,56.5 Z"/></g>
<g><path style="opacity:0.939" fill="#fefefe" d="M 346.5,56.5 C 369.434,53.9518 381.767,64.1184 383.5,87C 383.18,104.337 375.513,117.004 360.5,125C 341.745,131.317 328.578,125.484 321,107.5C 317.011,89.4691 321.844,74.3025 335.5,62C 339.017,59.6738 342.683,57.8405 346.5,56.5 Z M 349.5,71.5 C 360.613,70.4851 365.613,75.6517 364.5,87C 364.619,94.3564 362.786,101.19 359,107.5C 352.51,113.988 346.177,113.988 340,107.5C 337.297,97.095 338.297,87.095 343,77.5C 345.063,75.2659 347.229,73.2659 349.5,71.5 Z"/></g>
<g><path style="opacity:0.947" fill="#fefefe" d="M 423.5,56.5 C 443.805,54.9699 453.471,64.4699 452.5,85C 452.824,96.8742 449.657,107.708 443,117.5C 431.423,129.875 419.423,130.542 407,119.5C 404.466,129.703 402.466,140.036 401,150.5C 394.924,151.476 388.758,151.81 382.5,151.5C 387.617,120.129 392.951,88.7955 398.5,57.5C 404.167,57.5 409.833,57.5 415.5,57.5C 415.343,58.8734 415.51,60.2068 416,61.5C 418.479,59.6859 420.979,58.0192 423.5,56.5 Z M 420.5,71.5 C 430.948,70.4505 435.615,75.2838 434.5,86C 434.401,92.8291 432.901,99.3291 430,105.5C 424.034,113.763 417.368,114.43 410,107.5C 410.13,97.0471 411.463,86.7137 414,76.5C 415.965,74.4497 418.132,72.783 420.5,71.5 Z"/></g>
<g><path style="opacity:0.944" fill="#fefefe" d="M 469.5,57.5 C 475.5,57.5 481.5,57.5 487.5,57.5C 483.833,80.1667 480.167,102.833 476.5,125.5C 470.132,125.83 463.798,125.496 457.5,124.5C 461.609,102.181 465.609,79.8475 469.5,57.5 Z"/></g>
<g><path style="opacity:0.942" fill="#fefefe" d="M 602.5,57.5 C 602.5,58.1667 602.5,58.8333 602.5,59.5C 587.696,87.772 572.863,116.105 558,144.5C 550.519,152.714 541.353,155.38 530.5,152.5C 530.998,147.848 531.331,143.181 531.5,138.5C 542.438,139.068 548.771,133.902 550.5,123C 546.777,101.163 543.111,79.3297 539.5,57.5C 545.833,57.5 552.167,57.5 558.5,57.5C 560.006,70.8827 561.839,84.216 564,97.5C 569.806,84.4153 575.806,71.4153 582,58.5C 588.744,57.5212 595.578,57.1878 602.5,57.5 Z"/></g>
</svg>
